<mxfile host="app.diagrams.net" modified="2024-06-28T20:31:22.204Z" agent="Mozilla/5.0 (Windows NT 10.0; Win64; x64) AppleWebKit/537.36 (KHTML, like Gecko) Chrome/126.0.0.0 Safari/537.36" etag="rZUsH-_bV5pHl6rsbkbO" version="24.6.3" type="device">
  <diagram name="PÃ¡gina-1" id="lG_rNs6EYkqkiQ0QXLNg">
    <mxGraphModel dx="1420" dy="724" grid="1" gridSize="10" guides="1" tooltips="1" connect="1" arrows="1" fold="1" page="1" pageScale="1" pageWidth="1169" pageHeight="827" math="0" shadow="0">
      <root>
        <mxCell id="0" />
        <mxCell id="1" parent="0" />
        <mxCell id="-8QfyfblijkRoU6PidxF-3" style="edgeStyle=orthogonalEdgeStyle;rounded=0;orthogonalLoop=1;jettySize=auto;html=1;entryX=0;entryY=0.5;entryDx=0;entryDy=0;strokeWidth=2;strokeColor=#36a121;curved=1;" edge="1" parent="1" source="-8QfyfblijkRoU6PidxF-1" target="-8QfyfblijkRoU6PidxF-2">
          <mxGeometry relative="1" as="geometry" />
        </mxCell>
        <mxCell id="-8QfyfblijkRoU6PidxF-1" value="&lt;b&gt;&lt;font face=&quot;Helvetica&quot;&gt;Input X&lt;/font&gt;&lt;/b&gt;" style="rounded=1;whiteSpace=wrap;html=1;fillColor=#3399FF;strokeWidth=2;strokeColor=#A9C4EB;" vertex="1" parent="1">
          <mxGeometry x="190" y="250" width="90" height="50" as="geometry" />
        </mxCell>
        <mxCell id="-8QfyfblijkRoU6PidxF-2" value="&lt;b&gt;&lt;font face=&quot;Helvetica&quot;&gt;Modelo 1&lt;/font&gt;&lt;/b&gt;" style="rounded=1;whiteSpace=wrap;html=1;fillColor=#3399FF;strokeWidth=2;strokeColor=#A9C4EB;" vertex="1" parent="1">
          <mxGeometry x="320" y="170" width="90" height="50" as="geometry" />
        </mxCell>
        <mxCell id="-8QfyfblijkRoU6PidxF-5" style="edgeStyle=orthogonalEdgeStyle;rounded=0;orthogonalLoop=1;jettySize=auto;html=1;strokeWidth=2;strokeColor=#36a121;curved=1;exitX=1;exitY=0.5;exitDx=0;exitDy=0;entryX=0.5;entryY=0;entryDx=0;entryDy=0;" edge="1" parent="1" source="-8QfyfblijkRoU6PidxF-2" target="-8QfyfblijkRoU6PidxF-6">
          <mxGeometry relative="1" as="geometry">
            <mxPoint x="430" y="210" as="sourcePoint" />
            <mxPoint x="530" y="260" as="targetPoint" />
          </mxGeometry>
        </mxCell>
        <mxCell id="-8QfyfblijkRoU6PidxF-7" value="y1_pred" style="edgeLabel;html=1;align=center;verticalAlign=middle;resizable=0;points=[];fontStyle=1;fontSize=12;" vertex="1" connectable="0" parent="-8QfyfblijkRoU6PidxF-5">
          <mxGeometry x="-0.1903" y="-6" relative="1" as="geometry">
            <mxPoint as="offset" />
          </mxGeometry>
        </mxCell>
        <mxCell id="-8QfyfblijkRoU6PidxF-6" value="&lt;b&gt;&lt;font style=&quot;font-size: 12px;&quot; face=&quot;Helvetica&quot;&gt;Input X + y1_pred&lt;/font&gt;&lt;/b&gt;" style="rounded=1;whiteSpace=wrap;html=1;fillColor=#3399FF;strokeWidth=2;strokeColor=#A9C4EB;" vertex="1" parent="1">
          <mxGeometry x="450" y="250" width="90" height="50" as="geometry" />
        </mxCell>
        <mxCell id="-8QfyfblijkRoU6PidxF-8" value="&lt;b&gt;&lt;font face=&quot;Helvetica&quot;&gt;Modelo 2&lt;/font&gt;&lt;/b&gt;" style="rounded=1;whiteSpace=wrap;html=1;fillColor=#3399FF;strokeWidth=2;strokeColor=#A9C4EB;" vertex="1" parent="1">
          <mxGeometry x="580" y="330" width="90" height="50" as="geometry" />
        </mxCell>
        <mxCell id="-8QfyfblijkRoU6PidxF-9" style="edgeStyle=orthogonalEdgeStyle;rounded=0;orthogonalLoop=1;jettySize=auto;html=1;entryX=0;entryY=0.5;entryDx=0;entryDy=0;strokeWidth=2;strokeColor=#36a121;curved=1;exitX=0.5;exitY=1;exitDx=0;exitDy=0;" edge="1" parent="1" source="-8QfyfblijkRoU6PidxF-6" target="-8QfyfblijkRoU6PidxF-8">
          <mxGeometry relative="1" as="geometry">
            <mxPoint x="475.5" y="379.5" as="sourcePoint" />
            <mxPoint x="575.5" y="339.5" as="targetPoint" />
          </mxGeometry>
        </mxCell>
        <mxCell id="-8QfyfblijkRoU6PidxF-10" style="edgeStyle=orthogonalEdgeStyle;rounded=0;orthogonalLoop=1;jettySize=auto;html=1;strokeWidth=2;strokeColor=#36a121;curved=1;exitX=1;exitY=0.5;exitDx=0;exitDy=0;entryX=0.5;entryY=1;entryDx=0;entryDy=0;" edge="1" parent="1" source="-8QfyfblijkRoU6PidxF-8" target="-8QfyfblijkRoU6PidxF-13">
          <mxGeometry relative="1" as="geometry">
            <mxPoint x="710" y="350" as="sourcePoint" />
            <mxPoint x="740" y="300" as="targetPoint" />
          </mxGeometry>
        </mxCell>
        <mxCell id="-8QfyfblijkRoU6PidxF-12" value="y2_pred" style="edgeLabel;html=1;align=center;verticalAlign=middle;resizable=0;points=[];fontStyle=1;fontSize=12;" vertex="1" connectable="0" parent="-8QfyfblijkRoU6PidxF-10">
          <mxGeometry x="-0.1554" y="12" relative="1" as="geometry">
            <mxPoint as="offset" />
          </mxGeometry>
        </mxCell>
        <mxCell id="-8QfyfblijkRoU6PidxF-13" value="&lt;b&gt;&lt;font style=&quot;font-size: 12px;&quot; face=&quot;Helvetica&quot;&gt;Input X + y1_pred + y2_pred&lt;/font&gt;&lt;/b&gt;" style="rounded=1;whiteSpace=wrap;html=1;fillColor=#3399FF;strokeWidth=2;strokeColor=#A9C4EB;" vertex="1" parent="1">
          <mxGeometry x="710" y="250" width="90" height="50" as="geometry" />
        </mxCell>
        <mxCell id="-8QfyfblijkRoU6PidxF-14" value="&lt;b&gt;&lt;font face=&quot;Helvetica&quot;&gt;Modelo 3&lt;/font&gt;&lt;/b&gt;" style="rounded=1;whiteSpace=wrap;html=1;fillColor=#3399FF;strokeWidth=2;strokeColor=#A9C4EB;" vertex="1" parent="1">
          <mxGeometry x="830" y="170" width="90" height="50" as="geometry" />
        </mxCell>
        <mxCell id="-8QfyfblijkRoU6PidxF-15" style="edgeStyle=orthogonalEdgeStyle;rounded=0;orthogonalLoop=1;jettySize=auto;html=1;entryX=0;entryY=0.5;entryDx=0;entryDy=0;strokeWidth=2;strokeColor=#36a121;curved=1;exitX=0.5;exitY=0;exitDx=0;exitDy=0;" edge="1" parent="1" source="-8QfyfblijkRoU6PidxF-13" target="-8QfyfblijkRoU6PidxF-14">
          <mxGeometry relative="1" as="geometry">
            <mxPoint x="830" y="330" as="sourcePoint" />
            <mxPoint x="895" y="385" as="targetPoint" />
          </mxGeometry>
        </mxCell>
        <mxCell id="-8QfyfblijkRoU6PidxF-16" style="edgeStyle=orthogonalEdgeStyle;rounded=0;orthogonalLoop=1;jettySize=auto;html=1;strokeWidth=2;strokeColor=#36a121;curved=1;exitX=1;exitY=0.5;exitDx=0;exitDy=0;entryX=0.5;entryY=0;entryDx=0;entryDy=0;" edge="1" parent="1">
          <mxGeometry relative="1" as="geometry">
            <mxPoint x="920" y="195" as="sourcePoint" />
            <mxPoint x="1005" y="250" as="targetPoint" />
          </mxGeometry>
        </mxCell>
        <mxCell id="-8QfyfblijkRoU6PidxF-17" value="y3_pred" style="edgeLabel;html=1;align=center;verticalAlign=middle;resizable=0;points=[];fontStyle=1;fontSize=12;" vertex="1" connectable="0" parent="-8QfyfblijkRoU6PidxF-16">
          <mxGeometry x="-0.1903" y="-6" relative="1" as="geometry">
            <mxPoint as="offset" />
          </mxGeometry>
        </mxCell>
        <mxCell id="-8QfyfblijkRoU6PidxF-18" value="&lt;b&gt;&lt;font style=&quot;font-size: 20px;&quot;&gt;...&lt;/font&gt;&lt;/b&gt;" style="text;html=1;align=center;verticalAlign=middle;whiteSpace=wrap;rounded=0;" vertex="1" parent="1">
          <mxGeometry x="970" y="256" width="70" height="10" as="geometry" />
        </mxCell>
      </root>
    </mxGraphModel>
  </diagram>
</mxfile>
